<svg width="70" height="70" viewBox="0 0 70 70" fill="none" xmlns="http://www.w3.org/2000/svg">
<circle cx="35" cy="35" r="35" fill="white"/>
<path d="M26.08 38.62C26.08 37.6467 25.8867 36.88 25.5 36.32C25.1267 35.7467 24.5933 35.34 23.9 35.1C23.22 34.86 22.42 34.74 21.5 34.74H18.8V42.22H21.22C21.86 42.22 22.4667 42.1733 23.04 42.08C23.6267 41.9867 24.1467 41.8133 24.6 41.56C25.0667 41.3067 25.4267 40.9467 25.68 40.48C25.9467 40 26.08 39.38 26.08 38.62ZM25.04 27.02C25.04 25.9267 24.6933 25.14 24 24.66C23.32 24.1667 22.26 23.92 20.82 23.92H18.8V30.34H21.02C22.4333 30.34 23.4533 30.08 24.08 29.56C24.72 29.04 25.04 28.1933 25.04 27.02ZM32.84 38.88C32.84 40.48 32.5333 41.8067 31.92 42.86C31.3067 43.9133 30.4667 44.74 29.4 45.34C28.3333 45.94 27.1133 46.3667 25.74 46.62C24.38 46.8733 22.9467 47 21.44 47H12.24V19.28H21.02C22.4467 19.28 23.7933 19.4 25.06 19.64C26.34 19.8667 27.4733 20.2533 28.46 20.8C29.4467 21.3333 30.22 22.06 30.78 22.98C31.3533 23.8867 31.64 25.0133 31.64 26.36C31.64 27.4667 31.4067 28.4267 30.94 29.24C30.4733 30.04 29.8533 30.7 29.08 31.22C28.3067 31.7267 27.4667 32.0933 26.56 32.32C27.5467 32.48 28.52 32.7933 29.48 33.26C30.4533 33.7133 31.2533 34.3933 31.88 35.3C32.52 36.2067 32.84 37.4 32.84 38.88ZM56.8644 25.76L49.7844 47C49.1577 48.88 48.3244 50.4533 47.2844 51.72C46.2577 53 44.971 53.9867 43.4244 54.68C41.891 55.3733 40.0444 55.78 37.8844 55.9L37.1644 51.44C38.5644 51.2667 39.691 51.0067 40.5444 50.66C41.411 50.3133 42.1044 49.84 42.6244 49.24C43.1577 48.6533 43.6177 47.9067 44.0044 47H41.8444L35.1044 25.76H41.7844L45.9044 42.96L50.3844 25.76H56.8644Z" fill="url(#paint0_linear_58_744)"/>
<defs>
<linearGradient id="paint0_linear_58_744" x1="34" y1="8" x2="34" y2="60" gradientUnits="userSpaceOnUse">
<stop stop-color="#1D1D1D"/>
<stop offset="1" stop-color="#1D1D1D" stop-opacity="0"/>
</linearGradient>
</defs>
</svg>
